<svg xmlns="http://www.w3.org/2000/svg" width="350.116" height="400.188" viewBox="0 0 350.116 400.188"><path fill="#00598E" d="M260.44 76.086c-20.058-12.49-38.98-17.41-57.905-29.9-11.732-7.947-28.006-26.87-41.63-43.144-2.65 26.114-10.6 36.71-19.682 44.28-19.3 15.14-31.413 19.68-48.065 28.764-14.002 7.19-90.074 52.606-90.074 150.25 0 97.645 82.127 169.554 173.337 169.554s170.31-66.23 170.31-166.525c0-100.294-74.178-145.71-86.29-153.28z"/><path fill="#FFF" d="M229.7 311.07c6.056 0 12.49.38 17.032 3.407 4.542 3.028 7.19 9.84 8.705 13.625 1.514 3.785 0 6.056-3.027 7.57-2.65 1.513-3.028.756-5.677-4.164-2.65-4.92-4.92-9.84-18.166-9.84-13.247 0-17.41 4.542-23.843 9.84-6.435 5.298-8.705 7.19-10.976 4.163-2.27-3.026-1.514-6.054 2.65-9.84 4.162-3.784 10.975-9.84 17.41-12.488 6.43-2.65 9.838-2.27 15.893-2.27zM166.875 354.216c7.57 6.056 18.923 10.976 43.146 10.976 24.223 0 41.254-6.812 48.823-12.49 3.406-2.648 4.92-.377 5.298 1.136.38 1.514 1.136 3.785-1.513 6.434-1.893 1.893-19.302 14.003-39.74 15.896-20.436 1.892-48.064 3.027-64.717-12.11-2.65-2.65-1.892-6.435 0-7.95 1.893-1.513 3.406-2.648 5.677-2.648s1.893 0 3.028.756z"/><path fill="#0073BA" d="M74.152 325.453c28.763-.378 34.062-5.3 59.42-16.652 137.003-61.31 162.36-117.324 167.28-130.19 4.92-12.87 12.11-33.685 4.542-56.77-1.46-4.458-2.525-8.037-3.295-10.916-18.207-20.358-36.282-31.467-41.743-34.88-19.68-12.49-38.982-17.41-57.905-29.9C190.72 38.577 174.445 19.275 160.82 3c-2.65 26.114-10.22 37.09-19.68 44.28-19.302 15.14-31.413 19.68-48.065 28.764C79.072 83.614 3 128.65 3 226.294c0 31.177 8.373 59.73 22.74 84.154l3.753-.134c7.947 7.19 20.437 15.518 44.66 15.14z"/><path fill="#004975" d="M260.357 76.044c-19.68-12.49-38.982-17.41-57.905-29.9C190.72 38.577 174.445 19.275 160.82 3c-2.65 26.114-10.22 37.09-19.68 44.28-19.302 15.14-31.413 19.68-48.065 28.764C79.072 83.614 3 128.65 3 226.294c0 31.177 8.373 59.73 22.74 84.154 30.63 52.078 88.51 85.4 150.598 85.4 91.21 0 170.31-66.232 170.31-166.526 0-55.077-22.37-93.6-44.55-118.398-18.205-20.36-36.28-31.467-41.74-34.88zm46.003 44.304c24.85 31.066 37.448 67.73 37.448 108.974 0 23.934-4.558 46.542-13.548 67.198-8.528 19.595-20.81 36.956-36.5 51.6-31.02 28.947-72.72 44.89-117.423 44.89-22.116 0-43.817-4.225-64.502-12.556-20.317-8.184-38.628-19.902-54.42-34.83-33.26-31.435-51.577-73.814-51.577-119.33 0-40.538 13.16-76.56 39.11-107.063C64.773 95.93 86.152 83.013 94.423 78.54c4.016-2.19 7.783-4.123 11.426-5.992 11.42-5.86 22.207-11.397 37.042-23.033 7.91-6.012 16.338-15.535 19.927-39.715 12.5 14.87 27.008 31.58 38.093 38.73 9.84 6.495 19.933 11.045 29.694 15.446 9.234 4.164 18.78 8.468 28.23 14.464l.354.22c27.62 17.245 42.334 35.642 47.17 41.688z"/><path fill="#93C5E4" d="M162.713 10.57c5.298 15.516 4.542 23.464 4.542 26.87s-1.893 12.49-7.948 17.03c-2.65 1.894-3.406 3.407-3.406 3.786 0 1.514 3.407 2.65 3.407 6.056 0 4.163-1.892 12.49-21.95 32.548s-48.823 37.847-71.152 48.822c-22.33 10.976-32.927 10.218-35.955 4.92s1.136-17.03 15.14-32.548c14.002-15.517 58.283-37.847 58.283-37.847l55.256-38.604 3.026-14.76"/><path fill="#FFF" d="M162.713 10.19c-3.407 24.98-10.976 32.55-21.194 40.497-17.032 12.868-33.685 20.816-37.47 22.708-9.84 4.92-45.415 24.6-63.96 52.985-5.676 8.705 0 12.11 1.136 12.868 1.136.757 14.003 2.27 41.63-14.38 27.63-16.654 39.74-26.494 55.257-42.768 8.326-8.705 9.462-13.625 9.462-15.895 0-2.65-1.893-3.785-4.92-4.542-1.514-.378-1.893-1.135 0-2.27 1.892-1.137 9.84-4.92 11.732-6.435 1.893-1.514 10.976-7.57 11.354-17.41.38-9.84-.378-16.652-3.027-25.357zM77.558 285.335c.378-29.52 28.006-57.148 62.825-57.527 44.28-.378 74.936 43.902 97.266 43.524 18.922-.378 55.255-37.468 73.043-37.468 18.923 0 24.222 19.68 24.222 31.413s-3.785 32.926-12.868 46.173-14.76 18.167-25.357 17.41c-13.625-1.136-40.874-43.524-58.283-44.28-21.95-.757-69.638 45.794-107.106 45.794-22.707 0-29.52-3.406-37.09-8.326-11.354-7.95-17.03-20.06-16.652-36.713z"/><path fill="none" d="M305.394 121.838c7.57 23.086.38 43.902-4.54 56.77-4.92 12.868-30.28 68.88-167.283 130.192-25.356 11.354-30.655 16.274-59.418 16.652-24.222.378-36.71-7.948-44.66-15.14l-3.752.135c30.63 52.078 88.51 85.4 150.598 85.4 91.21 0 170.31-66.232 170.31-166.526 0-55.076-22.37-93.6-44.55-118.397.77 2.88 1.835 6.458 3.296 10.915z"/></svg>